<svg xmlns="http://www.w3.org/2000/svg" width="128" height="128" stroke="none" stroke-linecap="round" stroke-linejoin="round" fill="#fff" fill-rule="evenodd"><path fill="#600" d="M0 0h128v128H0z"/><path d="M0 39h128v4H0zm0 43h128v4H0zm0 42h128v4H0z" fill="#4d0000"/><path d="M0 52h128v4H0zm0 43h128v4H0zM0 9h128v4H0z" fill="#900"/><path fill="#262626" d="M0 0h128v4H0z"/><path fill="#900" d="M20 12h4v27h-4z"/><path fill="#4d0000" d="M8 13h4v28H8z"/><path fill="#c66" d="M0 4h128v5H0z"/><path d="M0 43h128v4H0zm0 43h128v4H0z" fill="#262626"/><path d="M0 47h128v5H0zm0 43h128v5H0z" fill="#c66"/><path d="M12 3h4v42h-4zm42 42h4v42h-4zm42 43h4v40h-4z" fill="#262626"/><path d="M16 5h4v38h-4zm42 43h4v38h-4zm42 44h4v36h-4z" fill="#c66"/><path d="M62 54h4v28h-4zm42 44h4v26h-4z" fill="#900"/><path d="M92 99h4v28h-4zM50 56h4v28h-4z" fill="#4d0000"/></svg>