<svg xmlns="http://www.w3.org/2000/svg" width="128" height="128" stroke="none" stroke-linecap="round" stroke-linejoin="round" fill="#fff" fill-rule="evenodd"><path fill="#ccc266" d="M0 0h128v128H0z"/><path d="M0 68h128v4H0zM0 4h128v4H0z" fill="#ddd698"/><path d="M0 60h128v4H0zm0 64h128v4H0z" fill="#665e00"/><path fill="#b0a43b" d="M0 56h128v4H0z"/><path d="M0 0h128v4H0zm0 64h128v4H0z" fill="#fffbcc"/><path fill="#ddd698" d="M38 6h4v50h-4z"/><path fill="#fffbcc" d="M34 2h4v58h-4z"/><path fill="#665e00" d="M30 4h4v58h-4z"/><path fill="#b0a43b" d="M0 120h128v4H0z"/><path fill="#fffbcc" d="M98 66h4v58h-4z"/><path fill="#665e00" d="M94 68h4v58h-4z"/><path d="M26 8h4v48h-4zm64 64h4v48h-4z" fill="#b0a43b"/><path fill="#ddd698" d="M102 70h4v50h-4z"/></svg>